<svg width="51" height="51" viewBox="0 0 51 51" fill="none" xmlns="http://www.w3.org/2000/svg">
<path d="M25.6473 10.6839C28.55 10.6839 30.9031 8.33084 30.9031 5.42818C30.9031 2.52552 28.55 0.172455 25.6473 0.172455C22.7447 0.172455 20.3916 2.52552 20.3916 5.42818C20.3916 8.33084 22.7447 10.6839 25.6473 10.6839Z" fill="white"/>
<path d="M11.4984 16.6067C14.4011 16.6067 16.7541 14.2537 16.7541 11.351C16.7541 8.44836 14.4011 6.09529 11.4984 6.09529C8.59574 6.09529 6.24268 8.44836 6.24268 11.351C6.24268 14.2537 8.59574 16.6067 11.4984 16.6067Z" fill="white"/>
<path d="M39.6491 16.6067C36.7464 16.6067 34.3933 14.2537 34.3933 11.351C34.3933 8.44836 36.7464 6.09529 39.6491 6.09529C42.5517 6.09529 44.9048 8.44836 44.9048 11.351C44.9048 14.2537 42.5517 16.6067 39.6491 16.6067Z" fill="white"/>
<path d="M45.7194 30.7579C42.8167 30.7579 40.4637 28.4048 40.4637 25.5021C40.4637 22.5995 42.8167 20.2464 45.7194 20.2464C48.622 20.2464 50.9751 22.5995 50.9751 25.5021C50.9751 28.4048 48.622 30.7579 45.7194 30.7579Z" fill="white"/>
<path d="M39.6491 44.9047C36.7464 44.9047 34.3933 42.5516 34.3933 39.649C34.3933 36.7463 36.7464 34.3933 39.6491 34.3933C42.5517 34.3933 44.9048 36.7463 44.9048 39.649C44.9048 42.5516 42.5517 44.9047 39.6491 44.9047Z" fill="white"/>
<path d="M5.42809 30.7579C8.33075 30.7579 10.6838 28.4048 10.6838 25.5021C10.6838 22.5995 8.33075 20.2464 5.42809 20.2464C2.52543 20.2464 0.172363 22.5995 0.172363 25.5021C0.172363 28.4048 2.52543 30.7579 5.42809 30.7579Z" fill="white"/>
<path d="M11.4984 44.9047C14.4011 44.9047 16.7541 42.5516 16.7541 39.649C16.7541 36.7463 14.4011 34.3933 11.4984 34.3933C8.59574 34.3933 6.24268 36.7463 6.24268 39.649C6.24268 42.5516 8.59574 44.9047 11.4984 44.9047Z" fill="white"/>
<path d="M25.6473 50.8275C28.55 50.8275 30.9031 48.4745 30.9031 45.5718C30.9031 42.6692 28.55 40.3161 25.6473 40.3161C22.7447 40.3161 20.3916 42.6692 20.3916 45.5718C20.3916 48.4745 22.7447 50.8275 25.6473 50.8275Z" fill="white"/>
<path d="M25.8894 45.355C36.855 45.355 45.7443 36.4656 45.7443 25.5C45.7443 14.5344 36.855 5.64503 25.8894 5.64503C14.9238 5.64503 6.03442 14.5344 6.03442 25.5C6.03442 36.4656 14.9238 45.355 25.8894 45.355Z" stroke="#0848F7" stroke-width="1.94656"/>
<path d="M31.7851 17.4176C32.2581 16.7142 33.2077 16.5301 33.9061 17.0064C34.5827 17.4679 34.7754 18.3799 34.3568 19.0759L34.3143 19.1426L24.8647 33.1957C24.3398 33.9763 23.2535 34.0978 22.5715 33.4704L22.514 33.4148L17.4994 28.3074C16.9063 27.7033 16.9117 26.7294 17.5115 26.1321C18.092 25.5541 19.0163 25.5405 19.6129 26.0877L19.6714 26.1443L23.3783 29.9194L31.7851 17.4176Z" fill="white"/>
</svg>
