<?xml version="1.0" standalone="no"?>
<!DOCTYPE svg PUBLIC "-//W3C//DTD SVG 20010904//EN"
 "http://www.w3.org/TR/2001/REC-SVG-20010904/DTD/svg10.dtd">
<svg version="1.0" xmlns="http://www.w3.org/2000/svg"
 width="786.000000pt" height="786.000000pt" viewBox="0 0 786.000000 786.000000"
 preserveAspectRatio="xMidYMid meet">
<metadata>
Created by potrace 1.14, written by Peter Selinger 2001-2017
</metadata>
<g transform="translate(0.000000,786.000000) scale(0.100000,-0.100000)"
fill="#000000" stroke="none">
<path d="M3877 7828 c-391 -35 -708 -362 -732 -755 -1 -24 1 -43 4 -43 3 0 51
11 106 25 55 14 120 27 145 31 25 3 52 7 60 10 8 2 36 6 62 9 25 3 56 8 69 10
138 27 630 27 804 0 17 -3 44 -6 60 -9 60 -8 233 -40 284 -53 l24 -6 -7 72
c-26 258 -200 506 -443 630 -70 35 -190 70 -266 77 -39 3 -74 7 -77 8 -3 1
-45 -1 -93 -6z"/>
<path d="M1655 6913 c-61 -9 -145 -34 -210 -63 -456 -205 -620 -760 -349
-1180 23 -36 57 -82 76 -103 l35 -38 43 72 c231 388 602 769 998 1024 l93 60
-38 35 c-77 72 -197 137 -318 171 -68 20 -257 32 -330 22z"/>
<path d="M5925 6898 c-92 -21 -240 -91 -304 -142 l-43 -36 32 -17 c64 -36 258
-168 340 -232 174 -135 370 -323 505 -486 70 -84 227 -300 259 -357 l18 -33
29 34 c60 72 132 239 147 340 15 99 7 273 -16 354 -78 275 -289 488 -564 568
-103 30 -293 33 -403 7z"/>
<path d="M3798 6835 c-1 -1 -37 -6 -78 -9 -173 -14 -489 -73 -513 -96 -20 -18
91 -196 174 -279 247 -245 624 -306 933 -150 118 60 207 133 283 234 43 57
113 184 113 204 0 6 -17 15 -37 21 -43 12 -286 54 -378 65 -60 7 -490 16 -497
10z"/>
<path d="M5366 6429 c-65 -148 -80 -367 -37 -529 71 -267 293 -494 556 -566
98 -27 144 -32 255 -29 105 3 166 15 271 54 101 38 100 30 11 166 -136 208
-331 432 -518 597 -122 107 -315 245 -467 333 l-47 27 -24 -53z"/>
<path d="M2485 6419 c-16 -10 -37 -22 -45 -26 -35 -18 -176 -119 -257 -183
-266 -214 -495 -472 -670 -754 -42 -68 -52 -91 -42 -97 42 -26 181 -52 279
-53 136 -1 188 6 280 38 265 93 454 299 526 571 20 77 23 108 20 220 -3 110
-8 143 -33 216 l-28 86 -30 -18z"/>
<path d="M5026 5270 c-71 -22 -105 -60 -284 -327 -209 -311 -541 -805 -886
-1318 -137 -203 -249 -371 -251 -372 -2 -3 -156 151 -432 433 -92 94 -183 179
-202 189 -44 22 -130 30 -174 16 -93 -31 -155 -111 -164 -212 -9 -95 17 -136
227 -349 497 -506 644 -651 672 -666 17 -9 57 -18 87 -21 66 -6 143 21 183 65
14 15 141 200 283 412 142 212 313 466 380 565 67 99 212 315 323 480 111 165
269 401 353 525 83 123 158 238 166 254 23 44 24 131 4 184 -44 111 -172 175
-285 142z"/>
<path d="M663 4719 c-325 -70 -584 -349 -628 -679 -7 -49 -7 -199 0 -235 75
-400 390 -672 793 -684 28 -1 52 2 52 6 0 4 -7 37 -16 73 -34 144 -57 282 -71
440 -15 163 -7 587 12 691 2 9 6 40 10 70 6 44 40 219 62 315 5 21 1 22 -64
21 -37 0 -105 -8 -150 -18z"/>
<path d="M7100 4736 c0 -1 9 -44 21 -96 11 -52 23 -106 25 -120 2 -14 6 -34 9
-45 2 -11 7 -47 10 -80 4 -33 8 -62 10 -65 18 -28 27 -537 12 -692 -10 -112
-34 -269 -58 -378 -30 -137 -30 -140 -20 -140 5 0 42 6 83 14 429 83 715 481
655 913 -43 311 -282 580 -588 662 -62 16 -159 33 -159 27z"/>
<path d="M6734 4677 c-28 -12 -62 -30 -77 -39 -14 -10 -29 -18 -33 -18 -4 0
-31 -18 -59 -39 -236 -178 -357 -463 -321 -756 11 -93 21 -127 70 -239 48
-108 153 -235 261 -315 41 -30 163 -93 201 -105 19 -6 23 -1 35 46 7 29 14 55
14 58 1 3 4 19 8 35 4 17 8 41 11 55 2 14 9 53 15 86 27 149 36 264 35 494 0
179 -7 305 -20 375 -2 11 -6 38 -9 60 -3 22 -7 51 -10 65 -2 14 -7 39 -10 55
-15 79 -48 205 -54 204 -3 0 -29 -10 -57 -22z"/>
<path d="M1151 4573 c-11 -49 -22 -106 -26 -128 -3 -22 -8 -53 -10 -70 -3 -16
-7 -42 -9 -57 -21 -135 -29 -540 -13 -678 10 -82 25 -187 32 -220 3 -14 7 -38
10 -55 12 -71 38 -165 46 -165 10 0 59 27 116 63 52 34 152 132 195 192 283
397 161 945 -265 1184 -21 11 -42 21 -46 21 -5 0 -18 -39 -30 -87z"/>
<path d="M1621 2544 c-70 -15 -161 -43 -161 -50 0 -15 137 -223 213 -324 102
-134 315 -359 445 -468 130 -108 365 -272 391 -272 6 0 22 37 37 83 22 68 27
104 30 214 2 92 -1 147 -10 178 -8 25 -12 45 -11 45 2 0 -4 24 -14 53 -95 274
-322 477 -611 543 -54 12 -247 11 -309 -2z"/>
<path d="M6028 2555 c-2 -2 -23 -5 -48 -8 -47 -7 -111 -22 -145 -36 -125 -51
-197 -96 -277 -173 -171 -166 -250 -344 -252 -566 -1 -157 11 -223 65 -348
l19 -46 48 27 c229 133 413 275 612 475 169 169 313 351 429 542 l22 37 -32
17 c-68 34 -144 58 -247 74 -54 9 -186 12 -194 5z"/>
<path d="M1175 2295 c-48 -56 -50 -59 -72 -90 -57 -82 -113 -217 -129 -315
-12 -68 -9 -238 5 -302 7 -32 12 -60 12 -63 0 -3 14 -40 32 -83 89 -209 259
-373 470 -452 145 -54 348 -63 496 -20 121 34 274 121 333 187 17 19 16 21
-60 68 -73 46 -233 161 -284 203 -13 11 -45 39 -73 62 -111 93 -310 297 -410
421 -89 111 -200 270 -259 372 -16 26 -29 47 -29 47 -1 0 -15 -16 -32 -35z"/>
<path d="M6715 2234 c-60 -97 -226 -328 -255 -354 -3 -3 -22 -25 -44 -50 -218
-253 -517 -502 -800 -668 l-38 -23 43 -34 c58 -46 208 -119 289 -141 102 -27
312 -25 414 4 224 64 412 222 511 427 66 135 79 196 79 355 0 96 -5 154 -18
200 -21 80 -95 233 -134 279 l-29 35 -18 -30z"/>
<path d="M3899 1646 c-2 -2 -26 -6 -54 -9 -261 -30 -497 -200 -621 -446 -13
-27 -24 -51 -24 -55 0 -11 167 -53 286 -72 20 -3 44 -7 53 -9 183 -35 683 -41
836 -10 18 4 43 8 130 21 37 5 43 6 137 28 l76 18 -27 56 c-135 284 -393 459
-702 477 -48 2 -88 3 -90 1z"/>
<path d="M3146 771 c20 -261 180 -509 410 -638 173 -98 364 -128 559 -88 263
54 487 240 589 490 26 65 56 195 56 245 0 26 -3 30 -22 26 -102 -21 -138 -27
-168 -32 -19 -3 -38 -8 -41 -10 -3 -1 -34 -6 -70 -9 -35 -4 -69 -8 -76 -10
-82 -26 -617 -26 -793 0 -14 2 -47 6 -75 10 -62 8 -176 30 -279 56 -43 10 -82
19 -87 19 -5 0 -6 -26 -3 -59z"/>
</g>
</svg>
